<?xml version="1.0" encoding="utf-8"?>
<!-- Generator: Adobe Illustrator 28.3.0, SVG Export Plug-In . SVG Version: 6.00 Build 0)  -->
<svg version="1.1" id="Livello_1" xmlns="http://www.w3.org/2000/svg" xmlns:xlink="http://www.w3.org/1999/xlink" x="0px" y="0px"
	 viewBox="0 0 423.7 253" style="enable-background:new 0 0 423.7 253;" xml:space="preserve">
<style type="text/css">
	.st0{fill:none;}
	.st1{fill:#FFFFFF;}
	.st2{fill:#B9D4FC;}
	.st3{fill:#DAE3F7;}
	.st4{fill:#1F1C2E;}
</style>
<g>
	<path class="st0" d="M284.4,39.1C284.4,39.1,284.4,39.1,284.4,39.1c3.8,2.5,5.7,5.3,5.7,8.5c0,0,0,0,0,0
		C290.1,44.4,288.2,41.6,284.4,39.1z"/>
	<path class="st0" d="M235.1,97.3c-0.3,0.4-0.8,0.7-1.3,0.7c-0.3,0-0.6-0.1-0.8-0.2l-8.7-5.6v6c0,0,0,0,0,0v-6l8.7,5.6
		c0.2,0.2,0.5,0.2,0.8,0.2C234.3,98,234.8,97.8,235.1,97.3L235.1,97.3c0.4-0.6,0.3-1.4-0.2-1.9C235.4,95.9,235.5,96.7,235.1,97.3z"
		/>
	<path class="st0" d="M256.4,74.8c0,1.5,0.2,3,0.5,4.5c0.1,0.8,0.3,1.5,0.5,2.2c-0.2-0.7-0.4-1.4-0.5-2.2
		C256.5,77.8,256.4,76.3,256.4,74.8z"/>
	<path class="st0" d="M275.9,61.1c-0.4,0.2-0.6,0.6-0.5,1C275.3,61.7,275.5,61.3,275.9,61.1c0.1-0.1,12.1-6.6,12.2-13.5c0,0,0,0,0,0
		C288,54.5,276,61,275.9,61.1z"/>
	<path class="st0" d="M306.7,75.3c0,0.1,0,0.2,0.1,0.3C306.7,75.5,306.7,75.4,306.7,75.3z"/>
	<path class="st0" d="M257.6,82.6c-0.1-0.2-0.1-0.4-0.2-0.6C257.5,82.2,257.6,82.4,257.6,82.6z"/>
	<path class="st0" d="M297,65.8c0.2,0.1,0.3,0.3,0.3,0.6C297.2,66.2,297.1,65.9,297,65.8c-0.5-0.3-1.3,0.2-1.9,1.1
		c-0.4,0.6-0.6,1.2-0.5,1.6c0-0.4,0.2-1,0.5-1.6C295.6,66,296.5,65.5,297,65.8z"/>
	<path class="st0" d="M279.5,101.1c-2.8,0-6.1-0.4-9.5-1.7C273.4,100.7,276.7,101.1,279.5,101.1z"/>
	<path class="st0" d="M305.5,71.9c0.4,1,0.8,2,1.1,3.1C306.3,73.9,305.9,72.9,305.5,71.9z"/>
	<path class="st0" d="M296.3,52.8c-0.5-0.2-1.1,0.1-1.3,0.6c0,0.1-0.1,0.3-0.1,0.4c0-0.1,0-0.3,0.1-0.4
		C295.3,52.9,295.8,52.6,296.3,52.8c0.4,0.2,3.1,1.1,5.1,2.7c0-4.2,0.7-9.4,2.5-16.2c0,0,0,0,0,0c-1.8,6.8-2.5,12-2.5,16.2
		C299.5,53.9,296.8,53,296.3,52.8z"/>
	<path class="st0" d="M284.8,98.7c0.6-0.7,1.2-1.4,1.7-2.2c2.2-3.6,6.5-5.2,10.6-6.9c5.4-2.1,10.1-4,10.2-9.4
		c-0.1,5.4-4.8,7.3-10.2,9.4c-4.1,1.6-8.4,3.3-10.6,6.9C286,97.3,285.4,98,284.8,98.7c-2.6,0.4-11.1,1.4-18.2-3.1
		c-3.2-2-5.6-4.9-7.4-8.7c1.8,3.7,4.2,6.6,7.4,8.7C273.7,100.1,282.2,99.1,284.8,98.7z"/>
	<path class="st0" d="M230.9,45.1c0.4-0.4,0.7-0.6,0.9-0.7c0.2-0.1,0.4-0.2,0.5-0.3c-0.1,0.1-0.3,0.2-0.5,0.3
		C231.6,44.5,231.2,44.8,230.9,45.1z"/>
	<path class="st0" d="M270.6,67.7c0.2,0.2,3.5,3.5,8.8,3.5c0.7,0,1.4-0.1,2.1-0.2c0.5-0.1,0.9-0.6,0.8-1.2c0,0,0,0,0,0
		c0.1,0.5-0.3,1.1-0.8,1.1c-0.7,0.1-1.4,0.2-2.1,0.2C274.2,71.2,270.8,67.9,270.6,67.7c-0.2-0.2-0.3-0.5-0.3-0.7
		C270.3,67.3,270.4,67.5,270.6,67.7z"/>
	<path class="st0" d="M211.3,38.2V61c0,1.6,1.3,2.9,2.9,2.9h0c-1.6,0-2.9-1.3-2.9-2.9L211.3,38.2L211.3,38.2c0-0.9,0.5-1.7,1.3-2.2
		l23.4-0.8c0,0,0,0,0,0L212.6,36C211.8,36.5,211.3,37.3,211.3,38.2z"/>
	<path class="st0" d="M280.7,54.8c0.5-0.1,1.1-0.5,1.5-1.2c0.4-0.6,0.6-1.2,0.5-1.6c0,0.4-0.2,1-0.5,1.6
		C281.7,54.2,281.1,54.7,280.7,54.8z"/>
	<path class="st0" d="M282.4,51.3c-0.5-0.3-1.3,0.2-1.9,1.1C281.1,51.5,282,51,282.4,51.3z"/>
	<path class="st0" d="M229.8,42.1c-2.6,1.8-5.7,6.8-7.6,10.1l0,0C224.1,49,227.2,44,229.8,42.1z"/>
	<path class="st0" d="M216.1,48.9l5,7c0.3,0.4,0.7,0.6,1.2,0.6c0,0,0.1,0,0.1,0c0.4,0,0.7-0.2,1-0.5c-0.3,0.3-0.6,0.4-1,0.5
		c0,0-0.1,0-0.1,0c-0.5,0-0.9-0.2-1.2-0.6v0L216.1,48.9c-0.3-0.5-0.3-1.2,0-1.7C215.8,47.7,215.8,48.4,216.1,48.9z"/>
	<path class="st0" d="M177.8,22.2c-0.2,0.4-0.4,0.8-0.7,1.2C177.4,23,177.7,22.6,177.8,22.2z"/>
	<path class="st0" d="M157.4,15c0.1-0.1,0.2-0.1,0.4-0.1C157.7,14.9,157.6,15,157.4,15z"/>
	<path class="st0" d="M185.6,38.7c0.8,0,1.4-0.7,1.5-1.5C187,38,186.4,38.7,185.6,38.7z"/>
	<path class="st0" d="M187,36.8c-0.2-0.7-0.8-1.2-1.5-1.2C186.2,35.6,186.8,36.1,187,36.8z"/>
	<path class="st0" d="M210.3,9c0,1.3-2.4,3-7,3h0C207.9,12,210.4,10.3,210.3,9c0-2,0-6-10-6c0,0,0,0,0,0C210.3,3,210.3,7.1,210.3,9z
		"/>
	<path class="st0" d="M171.8,24.1c-5.8-2.9-13.2-8.9-13.3-9C158.6,15.2,166,21.2,171.8,24.1z"/>
	<path class="st0" d="M253.5,229.9c-1.4-1.6-2.4-3.5-2.9-5.5c0,0,0,0,0,0C251.1,226.4,252,228.3,253.5,229.9
		c5.2,5.9,15.8,7.2,31.5,3.9c0,0,0,0,0,0C269.3,237.1,258.7,235.8,253.5,229.9z"/>
	<path class="st0" d="M176.2,24.3c-0.6,0.4-1.2,0.5-1.9,0.5C174.9,24.9,175.6,24.7,176.2,24.3z"/>
	<path class="st0" d="M156.9,16c0-0.3,0-0.5,0.2-0.7v0C157,15.5,156.9,15.8,156.9,16z"/>
	<path class="st0" d="M165.9,40.3c0.2,0.7,0.8,1.2,1.5,1.2C166.7,41.5,166,41,165.9,40.3z"/>
	<path class="st0" d="M231.9,83.6l-6.1,5.9l0,0L231.9,83.6c0.6-0.6,0.6-1.5,0-2.1c0,0,0,0,0,0C232.5,82.1,232.5,83,231.9,83.6z"/>
	<path class="st0" d="M178.5,11c-0.5-0.4-1.1-0.8-1.6-1.1c0,0,0,0,0,0c0,0,0,0,0,0C177.4,10.2,178,10.6,178.5,11z"/>
	<path class="st0" d="M168.8,7.7c-0.8,0-1.4,0-2,0.1C167.3,7.7,168,7.7,168.8,7.7z"/>
	<path class="st0" d="M167.1,38.5c0.6-0.1,10.6-2.3,16.8-2.8C177.7,36.3,167.7,38.4,167.1,38.5z"/>
	<path class="st0" d="M224.3,86.7L224.3,86.7l0-5.2c0-0.4-0.2-0.8-0.4-1.1c0.3,0.3,0.4,0.6,0.4,1.1V86.7z"/>
	<path class="st0" d="M179.7,22.7c1.9,0.2,4.1,0.2,4.6-1.3C183.8,22.9,181.6,23,179.7,22.7z"/>
	<path class="st0" d="M178.5,11c0.5,0.4,1.1,0.9,1.6,1.4C179.6,11.9,179,11.4,178.5,11z"/>
	<path class="st0" d="M182.7,15.6c0.4,0.6,0.7,1.1,1,1.7C183.3,16.7,183,16.1,182.7,15.6z"/>
	<path class="st0" d="M184,6c5.2,2,11,8.3,10.2,11.3c0,0.1-0.1,0.2-0.1,0.3c0.1-0.1,0.1-0.2,0.1-0.3C195,14.2,189.2,7.9,184,6L184,6
		c-4.9-1.9-7.7-0.4-9,0.8c0,0,0,0,0,0C176.3,5.6,179.2,4.1,184,6z"/>
	<path class="st0" d="M75.3,202.1C75.3,202.1,75.3,202.1,75.3,202.1C75.3,202.1,75.3,202.1,75.3,202.1
		C75.3,202.1,75.3,202.1,75.3,202.1z"/>
	<path class="st0" d="M85.7,181.4c0.1-0.1,0.1-0.1,0.2-0.1C85.9,181.3,85.8,181.4,85.7,181.4z"/>
	<path class="st0" d="M85.6,181.6c0-0.1,0.1-0.1,0.1-0.2C85.7,181.5,85.6,181.6,85.6,181.6z"/>
	<path class="st0" d="M131.5,189.5c0.9,1.4,1.9,2.7,2.9,3.9C133.4,192.2,132.4,191,131.5,189.5z"/>
	<polygon class="st0" points="90.2,216 85.5,182.1 85.5,182.1 90.2,216 	"/>
	<path class="st0" d="M76.3,200c0,0.2,0,0.4,0.3,0.6c1.4,1.2,6.2,1.2,9.5,0.9l-1-7.4C79.2,195.2,76.3,197.2,76.3,200z"/>
	<path class="st0" d="M74.3,200c0,0.5,0.1,0.9,0.3,1.3C74.5,200.9,74.3,200.5,74.3,200c0-5.6,7.1-7.2,10.5-7.8l-0.6-4c0,0,0,0,0,0
		l0.6,4C81.4,192.8,74.3,194.4,74.3,200z"/>
	<path class="st0" d="M178.3,20.7c0,0.4-0.2,1-0.4,1.6C178.1,21.6,178.2,21.1,178.3,20.7z"/>
	<path class="st0" d="M81.3,218h112.1c0,0,0,0,0,0L81.3,218c-0.5,0-1,0.4-1,1v0C80.3,218.4,80.8,218,81.3,218z"/>
	<path class="st0" d="M86.5,203.6l0.8,5.6c-9.3,1.4-16.7-0.3-19.6-4.4l0,0c2.8,4.1,10.3,5.8,19.6,4.5L86.5,203.6
		C86.5,203.6,86.5,203.6,86.5,203.6z"/>
	<path class="st0" d="M85.5,181.9C85.5,181.8,85.5,181.8,85.5,181.9C85.5,181.8,85.5,181.8,85.5,181.9z"/>
	<path class="st0" d="M273.6,237.5L273.6,237.5c-1.2,0.1-2.4,0.1-3.5,0.1c0,0,0,0,0,0C271.3,237.6,272.4,237.6,273.6,237.5z"/>
	<path class="st0" d="M195.3,216c2-2,3.8-3.8,5.4-5.3l-2.3-0.1l0,0c-1.9-0.1-3.5-1.6-3.6-3.5l0.4-8.4c-7.4,3.6-38.7,17.2-58.5-2.7
		l2.5,20H195.3z"/>
	<path class="st0" d="M203.6,210.8L203.6,210.8c-7.8,7.2-26.4,25.7-27.2,40.2h0C177.2,236.5,195.8,218,203.6,210.8z"/>
	<path class="st0" d="M285.2,235.8C285.2,235.8,285.2,235.8,285.2,235.8c-3.4,0.7-6.6,1.2-9.5,1.5l-1.4,13.7h0l1.4-13.7
		C278.6,237,281.8,236.5,285.2,235.8z"/>
	<path class="st0" d="M205.7,235h-2.2c-0.4,0-0.6-0.2-0.7-0.3c-0.1-0.1-0.1-0.2-0.2-0.4c0,0.1,0.1,0.3,0.2,0.4
		c0.1,0.1,0.3,0.3,0.7,0.3L205.7,235c0.5,0,0.9-0.3,1.1-0.7c3-7.1,7.8-18.2,10.7-23h0l0,0c-2.9,4.8-7.7,15.9-10.7,23
		C206.6,234.7,206.2,235,205.7,235z"/>
	<path class="st0" d="M208.7,235c5-12.1,9.3-21.2,11.1-23.6l0,0C218,213.9,213.7,222.9,208.7,235c-0.5,1.2-1.7,2-3,2h0
		C207,237,208.2,236.2,208.7,235z"/>
	<path class="st1" d="M320.3,84c0,2.9-2,4.8-3.3,5.7h0C318.3,88.8,320.4,86.9,320.3,84c0-4.1-3.6-5.2-5-5.6c0,0,0,0,0,0
		C316.8,78.8,320.3,79.9,320.3,84z"/>
	<path class="st1" d="M315.3,78.4c-1.8,2.8-3.9,7.3-5.1,13.3C311.4,85.7,313.5,81.3,315.3,78.4L315.3,78.4z"/>
	<path class="st1" d="M307.4,103.5c-0.9-19.6,8.8-29.7,9.3-30.2c0.4-0.4,1-0.4,1.4,0c0.4,0.4,0.4,1,0,1.4c0,0-0.7,0.7-1.6,2h0
		c2.6,0.8,5.9,2.9,5.9,7.3c0,2.8-1.4,5.4-4.1,7.4c-2.1,1.6-4.7,2.4-7.1,2.4c-0.5,0-0.9,0-1.3-0.1c-0.4,2.8-0.6,6-0.5,9.5l21.9-3.5
		c-0.3-6.3-0.4-11.9-0.4-15.1c0-20.8-8.2-35.6-24.5-44.1c-0.2-0.1-0.4-0.2-0.6-0.3c-4.4,16.9-1.8,23.1,0.8,29
		c1.2,2.9,2.5,5.8,2.8,9.8c0.6,7.8-5.8,10.3-11.5,12.5c-3.8,1.5-7.8,3-9.7,6.1c-0.4,0.7-0.9,1.3-1.4,1.9c0,0.5-0.3,0.9-0.7,1
		c0,0-0.1,0-0.2,0c-5.4,5.6-13.1,5.3-20.6,4.5c-1.8-0.2-3.3,0.2-4.5,1.3c-1.4,1.3-2.2,3.3-2.7,5.1c0.8,0.1,1.6,0.2,2.3,0.4
		c2.9-1,5.3-1.6,6.9-1.8c4.3-0.5,8.6-0.2,12.6,0.8l-0.5-2.8L307.4,103.5z"/>
	<path class="st2" d="M155.8,89.4c0.1,0,0.1-0.1,0.2-0.1C156,89.3,155.9,89.3,155.8,89.4z"/>
	<path class="st2" d="M148.4,76.9C148.4,76.9,148.4,76.9,148.4,76.9C148.4,76.9,148.4,76.9,148.4,76.9z"/>
	<path class="st2" d="M147.4,76.7C147.4,76.7,147.4,76.7,147.4,76.7C147.4,76.7,147.4,76.7,147.4,76.7z"/>
	<path class="st2" d="M155.4,90.2c0.1-0.3,0.2-0.5,0.4-0.7C155.6,89.7,155.5,89.9,155.4,90.2z"/>
	<path class="st2" d="M164.5,105.8c0.1,0,0.2-0.1,0.3-0.2C164.7,105.7,164.6,105.8,164.5,105.8L164.5,105.8z"/>
	<path class="st2" d="M156.2,89.1c0.1-0.1,0.3-0.1,0.4-0.1C156.5,89,156.4,89.1,156.2,89.1z"/>
	<path class="st2" d="M156.7,89L156.7,89c0.3,0,0.6,0,0.9,0.2C157.3,89,157,89,156.7,89z"/>
	<path class="st2" d="M145.6,75.7C145.5,75.7,145.5,75.7,145.6,75.7C145.5,75.7,145.5,75.7,145.6,75.7z"/>
	<path class="st2" d="M146.5,76.3C146.4,76.3,146.4,76.3,146.5,76.3C146.4,76.3,146.4,76.3,146.5,76.3z"/>
	<path class="st2" d="M163.9,106c0.1,0,0.2,0,0.3,0C164.1,106,164,106,163.9,106L163.9,106z"/>
	<path class="st2" d="M189.2,99.9c-0.2,0-0.5,0-0.8,0C188.7,99.9,188.9,99.9,189.2,99.9c0.2,0,0.5,0,0.7,0
		C189.6,99.9,189.4,99.9,189.2,99.9z"/>
	<path class="st2" d="M333.4,102.1c0.6,9.9,1.6,20.3,3.4,25l0,0c2,5.3,0.3,11.7-1.2,17.4c-0.9,3.3-1.7,6.5-1.7,9
		c0,3.8,0.9,6.4,1.8,8.6c0.6,1.8,1.2,3.5,1.2,5.4c0,5.8-2.1,10.3-6.4,13.8c-2.2,1.8-0.5,4.4,2.2,8.1c1.6,2.2,3.1,4.3,3.1,6.1
		c0,4.2-3.2,12.8-10.7,15c-0.1,0-0.2,0-0.3,0c-0.4,0-0.8-0.3-1-0.7c-0.1-0.5,0.2-1.1,0.7-1.2c2.1-0.6,3.8-1.7,5.1-3.2
		c-3.5,1.6-10.8-1.2-14.3-1.1c-0.8,2.5-1.8,4.3-1.9,4.4c-0.2,0.3-0.5,0.5-0.9,0.5c-0.2,0-0.3-0.1-0.5-0.1c-0.5-0.3-0.6-0.9-0.4-1.4
		c0,0,0.1-0.2,0.3-0.5c-1.3,1-3.2,1.6-4.3,1.8c-0.4,1.2-1,2.2-1.5,2.7c-0.2,0.2-0.4,0.3-0.7,0.3s-0.5-0.1-0.7-0.3
		c-0.4-0.4-0.4-1,0-1.4c0.3-0.3,0.6-0.7,0.8-1.3c-5.4-0.8-16.4,5.1-16.4,5.1l0,0l0,0l-0.8,0l-8.5-0.3c3.3,4,5.3,9.6,6.4,15.2
		c5,0,10.4-0.3,16.1-0.9c71-7,61,8,104-20C447.3,181.3,412,88.4,333.4,102.1z"/>
	<path class="st2" d="M193.6,97.7c0.9,0.7,1.3,2,1.1,3.5c-0.3,1.9-1.7,4.1-4,4.8c-0.4,0.1-1,0.2-1.6,0.2c0,0,0,0,0,0
		c0.6,0,1.1-0.1,1.6-0.2c2.4-0.7,3.7-2.9,4-4.8h0C195,99.7,194.6,98.4,193.6,97.7c-1-0.8-2.4-0.8-3.8-0.8
		C191.3,96.8,192.6,96.9,193.6,97.7L193.6,97.7z"/>
	<path class="st2" d="M187.9,92.8c-0.7,0.2-1.2,1-1.7,2.2c-0.3,1-0.2,1.5-0.2,1.5c0.2,0.3,1.3,0.3,2.3,0.4c-0.9,0-2-0.1-2.2-0.4
		c-0.1-0.1-0.2-0.5,0.2-1.5C186.7,93.7,187.3,93,187.9,92.8c0.2,0,0.3-0.1,0.4-0.1C188.2,92.7,188.1,92.7,187.9,92.8z"/>
	<path class="st2" d="M189.3,103.2c-1.2,0.1-2.4-0.8-3.4-1.8c-0.3-0.3-0.7-0.4-1.1-0.4c0.4,0,0.8,0.1,1,0.4
		C186.8,102.4,188.1,103.3,189.3,103.2z"/>
	<path class="st2" d="M193,93.4c-0.3,0.4-0.8,0.6-1.3,0.6C192.2,94,192.7,93.8,193,93.4c0.5-0.7,0.4-1.6-0.2-2.1
		c-0.2-0.2-1.5-1.2-3.2-1.5c1.7,0.4,3,1.4,3.2,1.5C193.4,91.8,193.5,92.8,193,93.4z"/>
	<path class="st2" d="M224.3,98.4c0,0.8-0.7,1.5-1.5,1.5c-0.4,0-0.8-0.2-1.1-0.4c0.3,0.3,0.6,0.4,1.1,0.4
		C223.7,100,224.4,99.3,224.3,98.4l0-0.3c0,0,0,0,0,0V98.4z"/>
	<path class="st2" d="M146.7,121.9l53.8-3.7c0.5,0,1,0.1,1.3,0.5c0.4,0.3,0.6,0.8,0.6,1.3v0c0-0.5-0.2-1-0.6-1.3
		c-0.4-0.3-0.8-0.5-1.3-0.5L146.7,121.9L146.7,121.9c-0.7,0-1.3,0.6-1.2,1.3l0,0C145.4,122.5,146,121.9,146.7,121.9z"/>
	<path class="st2" d="M194.3,131l-9.3,15.1c0,0,0,0,0,0L194.3,131C194.4,131,194.3,131,194.3,131z"/>
	<path class="st2" d="M163.9,144.8c1.4,1.9,3.1,4.4,4.4,6.3C167,149.2,165.2,146.8,163.9,144.8z"/>
	<path class="st2" d="M144.3,143.6l1,22.7c0,0,0,0,0,0L144.3,143.6c-0.7,0.4-1.6,0.9-2.7,1.6C142.7,144.5,143.6,144,144.3,143.6z"/>
	<path class="st2" d="M143.5,168.5c0.3,0.5,0.9,0.7,1.3,0.4c0.1,0,0.7-0.4,1.8-0.9c0.1,0,0.2-0.1,0.4-0.2c8.1-4.2,38-19.7,66.2-33.2
		l17.2,46.7l0,0l-17.2-46.8c-28.3,13.6-58.1,29-66.2,33.2c-0.1,0.1-0.2,0.1-0.4,0.2c-1.1,0.6-1.7,0.9-1.8,0.9
		C144.3,169.1,143.7,169,143.5,168.5c-0.2-0.4-0.1-0.8,0.1-1.1C143.3,167.7,143.3,168.1,143.5,168.5z"/>
	<path class="st2" d="M164.9,155.2c-1.9-2.4-5.1-6.6-6.6-9.9C159.8,148.6,163,152.8,164.9,155.2z"/>
	<path class="st2" d="M153.5,105c0.8,0.2,1.6-0.3,1.8-1.1C155.1,104.6,154.3,105.2,153.5,105z"/>
	<path class="st2" d="M250.7,212.6L250.7,212.6c-0.6,2.7-1.3,7.4-0.1,11.9c0,0,0,0,0,0C249.4,220,250.1,215.3,250.7,212.6z"/>
	<path class="st2" d="M231.5,180.1c0.2,0.6,0.8,0.9,1.4,0.9c0,0,0,0,0,0C232.3,181,231.7,180.7,231.5,180.1L231.5,180.1
		c-0.3-0.8,0-1.6,0.8-2l45-20c0.1,0,0.2-0.1,0.2-0.1c-0.1,0-0.2,0-0.3,0.1h0l-45,20C231.5,178.5,231.1,179.4,231.5,180.1z"/>
	<path class="st2" d="M209.9,118.6c-0.9,0.1-1.6,0.8-1.6,1.7C208.4,119.4,209,118.7,209.9,118.6z"/>
	<path class="st2" d="M124.9,174c-0.7-4.2-0.5-8.2,0.6-12.1c3.7-12.4,15.6-19,18.7-20.5l-0.8-18.1c-0.1-1.8,1.3-3.3,3.1-3.5
		l53.8-3.6c1-0.1,2.1,0.3,2.8,1c0.8,0.7,1.2,1.7,1.2,2.8v16.6c0.7-0.3,1.3-0.7,2-1v-15.2c0-1.9,1.5-3.6,3.4-3.7l45.8-3.6
		c0.1-0.6,0.2-1.3,0.4-2c-4.3-0.8-8.3-1.9-12.1-3.2c-0.3,0.1-0.6,0.2-0.9,0.2l-31.5,1.5c-1.8,0.1-3.3-1.3-3.4-3l-1.2-23.4
		c-2.1-2.2-4.1-4.4-6-6.6c-1.9,1.2-4,1.8-6.3,1.8L149,78.9c0,0-0.1,0-0.1,0l0,0c-2,0-3.8-0.8-5.2-2.2c-1.4-1.5-2.1-3.4-2-5.4
		l2.2-42.2C90.4,4.8,5.5-7.9,0.7,71.2c-3.2,53.1,49.3,85,102.8,103.6C109.2,174.1,116.3,173.7,124.9,174z M199.1,82.9L199.1,82.9
		c1.8,0,3.3,1.5,3.4,3.3l0.8,20.1c0.1,1.9-1.4,3.5-3.3,3.6l-19.1,0.9c-1.9,0.1-3.5-1.4-3.6-3.3L176.3,86
		C176.3,82.9,192.1,82.8,199.1,82.9z M146.6,84h20c0.5,0,0.9,0.2,1.3,0.4l3.4,2.5l0,0c0.5,0.4,0.9,1,0.9,1.7l1.4,20.5
		c0.1,1.2-0.8,2.3-2.1,2.4l-24.8,2.2c-1.3,0.1-2.5-0.9-2.5-2.3l-0.1-25.2C144.3,85,145.4,84,146.6,84z M67.5,52.5
		c5.6-10.2,16.1-6.8,18.7-5.7c2.3-1.7,10.6-6.7,18.6-5.3c5.4,1,9.6,4.7,12.5,11c3.1,6.8,3.4,12.5,1.1,17c-2.5,4.6-7.2,6.5-9.5,7.1
		c1.2,2.6,3.8,9,1.5,13.5c-1.3,2.5-3.8,4-7.5,4.4c-0.7,0.1-1.3,0.1-2,0.1c-3.1,0-5.7-0.9-7.8-2.7c-4.2-3.6-5.3-9.5-5.6-11.9
		c-2.9,0.1-5.3-0.6-6.8-2.2c-1.8-1.8-2.2-4.3-2.3-5.7l0,0c-3.3,0-7.6-2.5-10.2-5.9C65.1,62,64.9,57.2,67.5,52.5z M109.7,160.6
		c-0.5,1.6-1.9,2.8-4.2,3.3c-1.4,0.4-2.6,0.5-3.7,0.5c-3.8,0-5.8-1.8-6.8-3c-3.3,2.2-7.5,0.4-9.8-1.2c-1.5,1-5.3,3.2-10,2.5v0
		c-4.1-0.7-7.8-3.4-10.8-8.2c-4.9-7.7-3.2-13.9-0.9-17.8c1-1.6,2.1-3,3.1-4c-15.5,2.6-21.3-2.7-23.5-7.8c-4.1-9.9,2.8-24.5,9.6-28.8
		C63.2,89.5,71.1,94,72.7,95c8.8,0.2,13.8,7.5,15.2,9.8c3.9-0.8,21.2-3.3,29.4,16.8c7.9,19.4-6,29.1-10.3,31.5
		C108.3,154.7,110.5,157.9,109.7,160.6z"/>
	<path class="st2" d="M146.3,142.3L146.3,142.3c0-0.1,0.1-0.2,0.1-0.3C146.3,142.1,146.3,142.2,146.3,142.3z"/>
	<path class="st2" d="M277.8,161.1L277.8,161.1l4.6,2.1c0.1,0,0.2,0.1,0.3,0.1c-0.1,0-0.2-0.1-0.3-0.1L277.8,161.1z"/>
	<path class="st2" d="M88.3,78c0.1,0,0.1,0,0.2,0C88.5,78,88.4,78,88.3,78C88.3,78,88.3,78,88.3,78z"/>
	<path class="st2" d="M89.4,79c0-0.3-0.1-0.5-0.4-0.7c-0.1-0.1-0.2-0.1-0.3-0.2c0.1,0,0.2,0.1,0.3,0.2C89.2,78.4,89.3,78.7,89.4,79
		c0,0.1,0.4,7.6,5,11.5c1.9,1.6,4.3,2.3,7,2.2c-2.8,0.1-5.2-0.7-7-2.2C89.8,86.6,89.4,79,89.4,79z"/>
	<path class="st2" d="M80.3,71.1C80.3,71.1,80.3,71.1,80.3,71.1C80.3,71.1,80.3,71.1,80.3,71.1c0,0-0.3,3.3,1.7,5.3
		c0.6,0.6,1.3,1,2.1,1.3c-0.8-0.3-1.6-0.7-2.1-1.3C80,74.4,80.3,71.1,80.3,71.1z"/>
	<path class="st2" d="M101.6,43.3c-7,0.1-13.8,4.7-14.5,5.4c-0.1,0.1-0.2,0.1-0.2,0.2c0.1,0,0.2-0.1,0.3-0.2
		C87.8,48,94.6,43.4,101.6,43.3z"/>
	<path class="st2" d="M153.5,105c-0.8-0.2-1.3-1-1.1-1.8C152.2,104,152.7,104.8,153.5,105z"/>
	<path class="st2" d="M79.2,70C79.2,70,79.2,70,79.2,70c0.3-0.1,0.6,0,0.9,0.2c0,0,0,0,0,0.1c0,0,0,0,0-0.1
		C79.8,70.1,79.5,70,79.2,70z"/>
	<path class="st2" d="M117.6,130.8c1.3,14.7-12,20.8-12.6,21.1c-0.3,0.1-0.5,0.4-0.6,0.7c0,0.1,0,0.2,0,0.2c0-0.1,0-0.1,0-0.2
		c0.1-0.3,0.3-0.6,0.6-0.7C105.6,151.6,118.9,145.5,117.6,130.8z"/>
	<path class="st2" d="M80.3,70.7C80.3,70.7,80.3,70.6,80.3,70.7C80.3,70.6,80.3,70.7,80.3,70.7z"/>
	<path class="st2" d="M71.3,130.6c-0.2-0.4-0.7-0.7-1.2-0.6c-13.5,3.1-22.1,1.1-25-5.9c-1.4-3.3-1.3-7.2-0.4-11.1
		c-0.9,3.9-1,7.9,0.4,11.2c2.9,7,11.6,9,25,5.9C70.6,129.9,71.1,130.2,71.3,130.6c0,0.1,0.1,0.3,0.1,0.4
		C71.3,130.8,71.3,130.7,71.3,130.6z"/>
	<path class="st2" d="M78.2,70.1c-2.5-0.1-6.1-2-8.4-5.1c-1.8-2.4-3.3-6.4-0.5-11.5c3.6-6.6,9.4-6.6,13.2-5.8
		c-3.7-0.8-9.6-0.8-13.2,5.8h0c-2.8,5.1-1.2,9.1,0.5,11.5C72,68.1,75.7,70,78.2,70.1z"/>
	<path class="st2" d="M105.1,162c-7,1.8-8.8-2.2-8.8-2.4c-0.1-0.3-0.4-0.5-0.7-0.6c-0.1,0-0.1,0-0.2,0c-0.3,0-0.5,0.1-0.7,0.3
		c-3.3,3.3-8.4-0.9-8.7-1.1c-0.4-0.3-0.9-0.3-1.3,0c0,0-4.1,3.3-9.1,2.5v0c-3.5-0.6-6.7-3-9.4-7.3c-2.1-3.2-2.9-6.2-2.9-8.8
		c0,2.6,0.8,5.6,2.9,8.8c2.7,4.2,5.9,6.7,9.4,7.3c5,0.8,9.1-2.5,9.1-2.5c0.4-0.3,0.9-0.3,1.3,0c0.2,0.2,5.3,4.4,8.7,1.1
		c0.2-0.2,0.4-0.3,0.7-0.3c0.1,0,0.1,0,0.2,0c0.3,0.1,0.6,0.3,0.7,0.6C96.3,159.8,98.1,163.8,105.1,162c1.5-0.4,2.5-1,2.7-1.9
		c0.1-0.3,0.1-0.5,0.1-0.8c0,0.3,0,0.6-0.1,0.8C107.6,161,106.7,161.6,105.1,162z"/>
	<path class="st2" d="M257.7,112.7c0.9-0.3,1.8-0.6,2.6-0.9c-0.8-0.1-1.6-0.2-2.3-0.4C257.8,111.9,257.8,112.3,257.7,112.7z"/>
	<path class="st1" d="M156.9,16c0-0.3,0-0.5,0.2-0.7v0c0.1-0.1,0.2-0.2,0.3-0.3c0.1-0.1,0.2-0.1,0.4-0.1c0.3,0,0.5,0,0.7,0.2
		c0.1,0.1,7.4,6,13.3,9c0.9,0.4,1.7,0.7,2.4,0.7c0.7,0,1.4-0.1,1.9-0.5c0.4-0.3,0.7-0.6,1-1c0.3-0.4,0.5-0.8,0.7-1.2
		c0.3-0.6,0.4-1.2,0.4-1.6c0-0.1,0-0.2,0-0.3C177.7,18.4,166.5,7,157.4,7c-2.1,0-3.8,0.7-5.1,2.1c-2.7,2.8-3.1,7.7-3.1,10
		c0,0,0,0,0,0c0.2,0,0.3,0,0.5,0h10.6c-1.7-1.3-2.8-2.2-2.9-2.3C157.1,16.5,156.9,16.3,156.9,16z"/>
	<path class="st1" d="M211.3,38.2L211.3,38.2l0,22.9c0,1.6,1.3,2.9,2.9,2.9h18.5c1,0,1.9-0.4,2.6-1.1l0.3-0.3c1.8-1.9,2.9-4.4,3-7
		l0.7-17.2c0-0.8-0.3-1.6-0.9-2.2c-0.6-0.6-1.4-0.9-2.2-0.9L212.6,36C211.8,36.5,211.3,37.3,211.3,38.2z M216.5,46.8
		c0.7-0.5,1.6-0.3,2.1,0.3l3.6,5.1c1.9-3.2,5.1-8.3,7.6-10.1c0.4-0.3,0.7-0.5,1.1-0.6c0.8-0.3,1.6,0.2,1.9,1c0.2,0.6,0,1.2-0.4,1.6
		c-0.1,0.1-0.3,0.2-0.5,0.3c-0.2,0.1-0.6,0.3-0.9,0.7c-1.8,1.8-4.9,6.4-7.2,10.6c-0.1,0.1-0.1,0.2-0.2,0.3c-0.3,0.3-0.6,0.5-1,0.5
		c0,0-0.1,0-0.1,0c-0.5,0-0.9-0.2-1.2-0.6l-5-7c-0.4-0.5-0.4-1.2,0-1.7C216.2,47,216.3,46.9,216.5,46.8z"/>
	<path class="st1" d="M209.9,118.6c-0.9,0.1-1.6,0.8-1.6,1.7v14.3c15.4-7.4,30.6-14.5,42.1-19.2L209.9,118.6z"/>
	<path class="st1" d="M202.7,233.9c0,0.1,0,0.3,0,0.4c0,0.1,0.1,0.3,0.2,0.4c0.1,0.1,0.3,0.3,0.7,0.3h2.2c0.5,0,0.9-0.3,1.1-0.7
		c2.9-7.1,7.7-18.2,10.7-23l-3.4-0.1C212.2,213.9,204.6,225.4,202.7,233.9z"/>
	<path class="st1" d="M141.6,145.2c-4.6,2.9-11.6,8.7-14.2,17.3v0c-2.3,7.9-0.4,16.6,5.7,26c20.3,30.9,62.3,7.9,62.7,7.7l1.5-0.9
		l0,0l32.9-14l-17.2-46.7c-28.3,13.6-58.1,29-66.2,33.2c-0.1,0.1-0.2,0.1-0.4,0.2c-1.1,0.6-1.7,0.9-1.8,0.9
		c-0.5,0.3-1.1,0.1-1.3-0.4c-0.2-0.4-0.1-0.8,0.1-1.1c0.1-0.1,0.2-0.2,0.3-0.3c0.2-0.1,0.7-0.4,1.4-0.7l-1-22.7
		C143.6,144,142.7,144.5,141.6,145.2z"/>
	<path class="st1" d="M200.5,118.2l-53.8,3.7c-0.7,0-1.3,0.7-1.2,1.4l0.8,18.3c0,0,0,0,0,0c0.1,0.1,0.1,0.3,0.1,0.4
		c0,0.1,0,0.2-0.1,0.4l1,23c3.7-1.9,10.2-5.3,18.2-9.4c-0.2-0.2-0.4-0.5-0.6-0.8c-1.9-2.4-5.1-6.6-6.6-9.9c-0.6-1.2-0.9-2.3-0.9-3.1
		v0c0-4.1,3-1.9,4.5,0c0.4,0.5,1.1,1.5,2,2.8c1.4,1.9,3.1,4.4,4.4,6.3c0.8,1.1,1.4,2,1.8,2.5c0,0,0,0,0,0c1.2-0.6,2.5-1.3,3.8-1.9
		c0,0,0,0,0,0c2.3-5.3,11.1-24.7,15.4-24.7c5,0,5,4,5,4l0,0c0,0,0,0,0,0l-9.3,15c5.6-2.8,11.4-5.7,17.3-8.5V120c0-0.5-0.2-1-0.6-1.3
		C201.4,118.4,201,118.2,200.5,118.2z"/>
	<path class="st1" d="M143.7,71.4c-0.1,1.5,0.4,2.8,1.5,3.9c0.1,0.1,0.3,0.3,0.4,0.4c0,0,0,0,0,0c0.3,0.2,0.5,0.4,0.8,0.6
		c0,0,0,0,0.1,0c0.3,0.2,0.6,0.3,0.9,0.4c0,0,0.1,0,0.1,0c0.3,0.1,0.7,0.2,1,0.2c0,0,0,0,0,0c0.2,0,0.4,0,0.5,0l45.6-0.5
		c2.7,0,5.2-1.1,7.2-3c1.2-1.2,2.1-2.6,2.5-4.2c0.3-0.9,0.5-1.9,0.5-2.9l0.5-36.9c0-2.4-1-4.7-2.8-6.2c-1.5-1.3-3.4-2.1-5.5-2.1
		h-5.2c-0.7,0.1-1.6,0.2-2.5,0.2s-1.8-0.1-2.9-0.2l0,0c0,0.4-0.1,0.7-0.2,1.1c-0.5,1.3-1.8,2.7-5.1,2.7c-0.7,0-1.5-0.1-2.4-0.2
		c-0.4,0.5-0.9,1-1.5,1.4c-0.7,0.4-1.6,0.8-2.9,0.8c-1,0-2.1-0.2-3.5-0.9c-2.6-1.3-5.5-3.2-7.9-4.9h-13.4c-1.2,0-2.2,0.6-2.8,1.4
		c-0.4,0.5-0.6,1.2-0.6,1.8L143.7,71.4z M167,38.5C167,38.5,167,38.5,167,38.5c0.7-0.1,10.6-2.3,16.8-2.8c0.4,0,0.7-0.1,1.1-0.1
		c0.2,0,0.4,0,0.6,0h0c0,0,0,0,0,0c0.7,0,1.3,0.5,1.5,1.2c0,0.1,0,0.2,0,0.3c0,0,0,0.1,0,0.1c0,0.8-0.7,1.4-1.5,1.5
		c-2.2,0.1-5.3,0.5-8.3,1V60c0,0.2,0,0.4-0.1,0.6c-0.1,0.3-0.3,0.5-0.5,0.7c-0.2,0.2-0.5,0.3-0.8,0.3c-0.8,0-1.5-0.7-1.5-1.5V40.2
		c-3.6,0.7-6.5,1.3-6.6,1.3c-0.1,0-0.2,0-0.3,0c-0.7,0-1.3-0.5-1.5-1.2C165.7,39.5,166.2,38.7,167,38.5z"/>
	<path class="st1" d="M166.7,7.8c7.2,3.9,13.5,10.5,13.5,12.4c0,0.3,0,0.7-0.1,1.1c-0.1,0.4-0.2,0.9-0.4,1.4
		c1.9,0.2,4.1,0.1,4.6-1.3c0.4-1,0-2.5-0.8-4.2c-0.3-0.5-0.6-1.1-1-1.7c-0.7-1.1-1.6-2.2-2.6-3.2c-0.5-0.5-1-1-1.6-1.4
		s-1.1-0.8-1.6-1.1c0,0,0,0,0,0c-2.9-1.7-5.8-2.1-8-2.2C168,7.7,167.3,7.7,166.7,7.8C166.7,7.8,166.7,7.8,166.7,7.8z"/>
	<path class="st1" d="M184,6c-4.8-1.8-7.7-0.3-9,0.8c0.9,0.3,1.9,0.8,2.9,1.3c3.8,2.2,7.7,7,8.5,10.9c0,0,0,0,0,0c0,0,0.1,0,0.1,0
		c2.1,0.3,3.9,0.2,5.2,0c1.3-0.2,2.2-0.7,2.5-1.4c0-0.1,0.1-0.2,0.1-0.3C195,14.3,189.2,7.9,184,6z"/>
	<path class="st1" d="M104.4,152.6c0.1-0.3,0.3-0.6,0.6-0.7c0.7-0.3,14-6.4,12.6-21.1c-0.2-2.5-0.9-5.3-2.2-8.4
		c-8.5-20.9-27-15.7-27.8-15.4c-0.5,0.1-1-0.1-1.2-0.5c-0.1-0.1-4.9-9.4-14.1-9.4c-0.2,0-0.4-0.1-0.6-0.2c-0.3-0.2-7.6-5.5-17.9,1
		c-3.7,2.3-7.6,8.6-9.2,15.1c-0.9,3.9-1,7.9,0.4,11.1c2.9,7,11.6,9,25,5.9c0.5-0.1,1,0.1,1.2,0.6c0.1,0.1,0.1,0.2,0.1,0.4
		c0,0.4-0.1,0.7-0.5,0.9v0c-0.4,0.3-7.5,5-7.6,12.8c0,2.6,0.8,5.5,2.9,8.8c2.7,4.2,5.9,6.7,9.4,7.3v0c5,0.8,9.1-2.5,9.1-2.5
		c0.4-0.3,0.9-0.3,1.3,0c0.2,0.2,5.4,4.4,8.7,1.1c0.2-0.2,0.4-0.3,0.7-0.3c0.1,0,0.1,0,0.2,0c0.3,0.1,0.6,0.3,0.7,0.6
		c0.1,0.2,1.8,4.2,8.8,2.4c1.6-0.4,2.5-1,2.7-1.9c0.1-0.3,0.1-0.5,0.1-0.8c-0.1-2.1-2.4-4.8-3.3-5.7c-0.2-0.2-0.3-0.4-0.3-0.7
		C104.4,152.8,104.4,152.7,104.4,152.6z"/>
	<path class="st1" d="M210.3,9c0-1.9,0-6-10-6c-7.3,0-10.8,1.8-12.2,2.9c2.4,1.6,4.8,3.8,6.4,6.1h8.8C207.9,12,210.3,10.3,210.3,9z"
		/>
	<polygon class="st1" points="315.3,78.4 315.3,78.4 315.3,78.4 	"/>
	<path class="st1" d="M315.4,90.7c0.6-0.3,1.1-0.6,1.7-1c1.2-0.9,3.3-2.8,3.3-5.7c0-4.1-3.6-5.2-5-5.6c-1.8,2.8-3.9,7.3-5.1,13.3
		C311.8,91.9,313.7,91.6,315.4,90.7z"/>
	<path class="st1" d="M270,99.5v3.9c4.5,0.2,8.6-0.2,12.1-2.4c-0.8,0.1-1.6,0.1-2.6,0.1C276.7,101.1,273.4,100.7,270,99.5z"/>
	<path class="st1" d="M69.2,53.5c-2.8,5.1-1.2,9.1,0.5,11.5c2.3,3.1,6,5,8.4,5.1c0.3,0,0.7,0,1-0.1c0,0,0,0,0,0c0,0,0,0,0,0
		c0.3-0.1,0.6,0,0.9,0.2c0,0,0,0,0,0.1c0.1,0.1,0.2,0.2,0.2,0.3c0,0,0,0.1,0,0.1c0,0.1,0,0.2,0,0.3c0,0,0,0.1,0,0.1
		c0,0-0.3,3.3,1.7,5.3c0.6,0.6,1.3,1,2.1,1.3c1.1,0.4,2.5,0.5,4.1,0.3c0,0,0,0,0,0c0,0,0.1,0,0.1,0c0,0,0,0,0,0c0.1,0,0.1,0,0.2,0
		c0.1,0,0.1,0,0.2,0c0.1,0,0.2,0.1,0.3,0.2c0.2,0.2,0.3,0.4,0.4,0.7c0,0.1,0.4,7.6,5,11.5c1.9,1.6,4.2,2.3,7,2.2
		c0.4,0,0.8,0,1.2-0.1c3-0.3,5-1.5,5.9-3.3c2.4-4.7-2-12.7-2.1-12.8c-0.2-0.3-0.2-0.6,0-0.9c0.1-0.3,0.4-0.5,0.7-0.6
		c0.1,0,6.6-1.2,9.4-6.4c2-3.8,1.7-9-1.1-15.2c-2.5-5.6-6.2-8.9-10.9-9.8c-1-0.2-2-0.3-3-0.3c-7,0.1-13.7,4.7-14.5,5.4
		c-0.1,0.1-0.2,0.1-0.3,0.2c-0.3,0.1-0.6,0.2-0.9,0c-0.2-0.1-1.5-0.7-3.5-1.2C78.7,46.9,72.8,46.9,69.2,53.5z"/>
	<path class="st1" d="M232.2,178.1c-0.8,0.3-1.1,1.2-0.8,2h0c0.2,0.6,0.8,0.9,1.4,0.9c0.2,0,0.4,0,0.6-0.1l44.4-19.7l0,0l0,0
		l4.6,2.1c0.1,0,0.2,0.1,0.3,0.1c0.7,0.2,1.4-0.2,1.7-0.8c0.3-0.8,0-1.6-0.7-2l-5.2-2.4c-0.3-0.1-0.7-0.2-1-0.1
		c-0.1,0-0.2,0-0.2,0.1L232.2,178.1z"/>
	<path class="st1" d="M266.6,95.5c7,4.5,15.6,3.6,18.2,3.1c0.6-0.7,1.2-1.4,1.7-2.2c2.2-3.6,6.5-5.2,10.6-6.9
		c5.4-2.1,10.1-4,10.2-9.4c0-0.4,0-0.7,0-1.1c-0.1-1.3-0.3-2.4-0.6-3.5c0-0.1,0-0.2-0.1-0.3c0-0.1-0.1-0.2-0.1-0.3
		c-0.3-1.1-0.7-2.1-1.1-3.1c-0.3-0.7-0.5-1.3-0.8-2c-1.3-3.1-2.7-6.4-3.1-11.3c-0.5-1.5-3.9-3.2-5.9-3.9c-0.4-0.1-0.6-0.5-0.7-0.9
		c0-0.1,0-0.3,0.1-0.4c0.2-0.5,0.8-0.8,1.3-0.6c0.4,0.1,3.1,1.1,5.1,2.7c0-4.2,0.7-9.4,2.5-16.2c-5.9-2.3-12.8-2.3-19.5-0.2
		c3.8,2.5,5.7,5.3,5.7,8.5c0,0,0,0,0,0c0,0,0,0,0,0c-0.1,8.1-12.7,14.9-13.2,15.2c-0.1,0.1-0.3,0.1-0.5,0.1c-0.4,0-0.7-0.2-0.9-0.5
		c-0.1-0.1-0.1-0.3-0.1-0.4c0-0.4,0.2-0.8,0.5-1c0.1-0.1,12.1-6.6,12.2-13.5c0-2.8-2-5.4-6.1-7.6c-3.3,1.3-6.5,3.1-9.6,5.4
		c-10.3,7.6-16.2,18.8-16,29.4c0,1.5,0.2,3,0.5,4.5c0.1,0.8,0.3,1.5,0.5,2.2c0,0.2,0.1,0.4,0.1,0.5c0.1,0.2,0.1,0.4,0.2,0.6
		c0.4,1.5,1,3,1.6,4.3C261,90.6,263.5,93.5,266.6,95.5z M295,66.9c0.6-0.9,1.5-1.4,1.9-1.1c0.2,0.1,0.3,0.3,0.3,0.6
		c0,0.4-0.2,1-0.5,1.6c-0.6,0.9-1.5,1.4-1.9,1.1c-0.2-0.1-0.3-0.3-0.3-0.6C294.4,68.1,294.6,67.5,295,66.9z M280,53.8
		c0-0.4,0.2-0.9,0.5-1.3c0.6-0.9,1.5-1.4,1.9-1.1c0,0,0,0,0,0c0.1,0.1,0.2,0.2,0.2,0.3c0,0.1,0,0.2,0,0.2c0,0.4-0.2,1-0.5,1.6
		c-0.5,0.7-1.1,1.1-1.5,1.2c-0.2,0-0.3,0-0.4-0.1C280,54.5,279.9,54.2,280,53.8z M270.6,66.3c0.4-0.4,1-0.4,1.4,0
		c0.2,0.2,3.7,3.6,9.1,2.7c0.5-0.1,1.1,0.3,1.2,0.8c0,0,0,0,0,0c0,0,0,0,0,0c0.1,0.5-0.3,1.1-0.8,1.2c-0.7,0.1-1.4,0.2-2.1,0.2
		c-5.2,0-8.6-3.3-8.8-3.5c-0.2-0.2-0.3-0.5-0.3-0.7C270.3,66.7,270.4,66.5,270.6,66.3z"/>
	<path class="st1" d="M137.2,216l-2.8-22.5c-1-1.2-2-2.5-2.9-3.9c-3-4.7-5.1-9.2-6.2-13.5c0,0,0,0,0,0c-24.6-0.8-36.3,3.8-39.4,5.3
		c-0.1,0-0.1,0.1-0.2,0.1c0,0,0,0,0,0c-0.1,0.1-0.1,0.1-0.1,0.2c0,0.1,0,0.1-0.1,0.2c0,0,0,0,0,0.1c0,0.1,0,0.2,0,0.3l4.7,33.9
		H137.2z"/>
	<path class="st1" d="M277,213.6l-26.4-1c-0.6,2.7-1.3,7.4-0.1,11.9c0.5,1.9,1.4,3.8,2.9,5.5c5.2,5.9,15.8,7.2,31.5,3.9
		C284.1,226.3,281.9,218.2,277,213.6z"/>
	<path class="st1" d="M87.2,209.1l-0.8-5.6c-0.9,0.1-2.4,0.2-3.9,0.2c-2.7,0-5.7-0.3-7.2-1.6c0,0,0,0,0,0c0,0,0,0,0,0c0,0,0,0,0,0
		c-0.3-0.2-0.5-0.5-0.6-0.8c-0.2-0.4-0.3-0.8-0.3-1.3c0-5.6,7.1-7.2,10.5-7.8l-0.6-4c-2.6-0.3-11.3-0.7-16.1,7.3
		c-2,3.4-2.2,6.7-0.5,9.2l0,0C70.5,208.8,77.9,210.5,87.2,209.1z"/>
	<path class="st1" d="M81.3,224L81.3,224l106.8,0c1.8-2.1,3.6-4.1,5.3-6H81.3c-0.5,0-1,0.4-1,1v4.1C80.3,223.6,80.8,224,81.3,224z"
		/>
	<path class="st1" d="M285.2,235.8c-3.4,0.7-6.6,1.2-9.5,1.5l-1.4,13.7h11.1C285.6,248.8,285.9,242.7,285.2,235.8z"/>
	<path class="st1" d="M270.1,237.6C270.1,237.6,270.1,237.6,270.1,237.6C270.1,237.6,270.1,237.6,270.1,237.6
		c-8.4,0-14.4-2.1-18.2-6.3c-5.3-6-4.3-14.4-3.4-18.8l-28.8-1.1c-1.8,2.5-6.1,11.5-11.1,23.6c-0.5,1.2-1.6,2-2.9,2h0h-2.1h0
		c-0.9,0-1.7-0.4-2.2-1.1c-0.5-0.7-0.8-1.6-0.6-2.4c1.8-8.1,8.3-18.4,11-22.4l-8.1-0.3c-7.8,7.2-26.4,25.7-27.2,40.2h95.9l1.3-13.5
		C272.4,237.6,271.3,237.6,270.1,237.6z"/>
	<path class="st3" d="M143.7,76.7c1.4,1.4,3.2,2.2,5.2,2.2l0,0c0,0,0.1,0,0.1,0l45.6-0.5c2.3,0,4.4-0.7,6.3-1.8
		c0.8-0.5,1.6-1.1,2.3-1.8c2.3-2.3,3.6-5.3,3.6-8.5l0.5-36.9c0-3-1.2-5.8-3.4-7.8c-1.9-1.7-4.3-2.6-6.8-2.6h-1.5c-0.7,1-2,1.7-3.7,2
		h5.2c2,0,3.9,0.7,5.4,2.1c1.8,1.6,2.8,3.9,2.8,6.2l-0.5,36.9c0,1-0.2,2-0.5,3c-0.5,1.6-1.4,3-2.5,4.2c-1.9,1.9-4.5,3-7.2,3
		L149,76.9c-0.2,0-0.4,0-0.5,0c0,0,0,0,0,0c-0.3,0-0.7-0.1-1-0.2c0,0-0.1,0-0.1,0c-0.3-0.1-0.6-0.2-0.9-0.4c0,0,0,0-0.1,0
		c-0.3-0.2-0.6-0.4-0.8-0.6c0,0,0,0,0,0c-0.1-0.1-0.3-0.2-0.4-0.4c-1-1-1.5-2.4-1.5-3.9l2.4-47.1c0-0.7,0.3-1.3,0.6-1.8
		c0.6-0.9,1.7-1.5,2.8-1.5H163c-1-0.7-1.9-1.4-2.7-2c0,0,0,0,0,0h-10.6c-0.2,0-0.3,0-0.5,0c0,0,0,0,0,0c0,0,0,0,0,0
		c-0.7,0.1-1.4,0.3-2,0.6c0,0,0,0,0,0c-1.7,0.9-2.9,2.6-3,4.6l-0.3,5l-2.2,42.2C141.6,73.3,142.3,75.2,143.7,76.7z"/>
	<path class="st3" d="M194.4,131c0,0,0-4-5-4c-4.3,0-13.1,19.4-15.4,24.7c3.5-1.8,7.3-3.7,11.1-5.6c0,0,0,0,0,0L194.4,131L194.4,131
		z"/>
	<path class="st3" d="M163.9,144.8c-0.9-1.2-1.6-2.3-2-2.8c-1.5-1.9-4.5-4.1-4.5,0v0c0,0.8,0.4,1.9,0.9,3.1c1.6,3.3,4.8,7.6,6.6,9.9
		c0.2,0.3,0.4,0.5,0.6,0.8c0,0,0,0,0,0c1.5-0.8,3-1.5,4.6-2.3c-0.3-0.5-1-1.4-1.8-2.5C167,149.2,165.2,146.8,163.9,144.8z"/>
	<path class="st4" d="M279.4,71.2c0.7,0,1.4,0,2.1-0.2c0.5-0.1,0.9-0.6,0.8-1.1c0,0,0,0,0,0c-0.1-0.5-0.6-0.9-1.2-0.8
		c-5.4,0.9-9-2.6-9.1-2.7c-0.4-0.4-1-0.4-1.4,0c-0.2,0.2-0.3,0.5-0.3,0.7c0,0.3,0.1,0.5,0.3,0.7C270.8,67.9,274.2,71.2,279.4,71.2z"
		/>
	<path class="st4" d="M280.7,54.8c0.5-0.1,1.1-0.5,1.5-1.2c0.4-0.6,0.6-1.2,0.5-1.6c0-0.1,0-0.2,0-0.2c0-0.2-0.1-0.3-0.2-0.3
		c0,0,0,0,0,0c-0.5-0.3-1.3,0.2-1.9,1.1c-0.3,0.5-0.5,0.9-0.5,1.3c0,0.4,0,0.7,0.3,0.9C280.4,54.7,280.5,54.8,280.7,54.8z"/>
	<path class="st4" d="M294.7,69.2c0.5,0.3,1.3-0.2,1.9-1.1c0.4-0.6,0.6-1.2,0.5-1.6c0-0.3-0.1-0.5-0.3-0.6c-0.5-0.3-1.3,0.2-1.9,1.1
		c-0.4,0.6-0.6,1.2-0.5,1.6C294.5,68.8,294.6,69.1,294.7,69.2z"/>
	<path class="st4" d="M117.3,121.6c-8.2-20.1-25.5-17.6-29.4-16.8c-1.4-2.3-6.4-9.7-15.2-9.8c-1.6-1-9.4-5.5-19.9,1.1
		c-6.7,4.3-13.7,18.9-9.6,28.8c2.2,5.2,8,10.5,23.5,7.8c-1,1-2.2,2.4-3.1,4c-2.3,3.9-4,10.1,0.9,17.8c3.1,4.8,6.7,7.5,10.8,8.2v0
		c4.7,0.7,8.5-1.4,10-2.5c2.3,1.7,6.5,3.5,9.8,1.2c1,1.2,3,3,6.8,3c1.1,0,2.3-0.1,3.7-0.5c2.3-0.6,3.7-1.7,4.2-3.3
		c0.8-2.7-1.5-5.9-2.8-7.5C111.2,150.7,125.2,141,117.3,121.6z M105,151.9c-0.3,0.1-0.5,0.4-0.6,0.7c0,0.1,0,0.1,0,0.2
		c0,0.2,0.1,0.5,0.3,0.7c0.9,0.9,3.1,3.7,3.3,5.7c0,0.3,0,0.6-0.1,0.8c-0.2,0.9-1.2,1.5-2.7,1.9c-7,1.8-8.8-2.2-8.8-2.4
		c-0.1-0.3-0.4-0.5-0.7-0.6c-0.1,0-0.1,0-0.2,0c-0.3,0-0.5,0.1-0.7,0.3c-3.3,3.3-8.4-0.9-8.7-1.1c-0.4-0.3-0.9-0.3-1.3,0
		c0,0-4.1,3.3-9.1,2.5c-3.5-0.6-6.7-3-9.4-7.3c-2.1-3.3-2.9-6.2-2.9-8.8c0-7.8,7.2-12.5,7.6-12.8v0c0.3-0.2,0.5-0.5,0.5-0.9
		c0-0.1,0-0.2-0.1-0.3c-0.2-0.5-0.7-0.7-1.2-0.6c-13.5,3.1-22.1,1.1-25-5.9c-1.4-3.3-1.3-7.3-0.4-11.2c1.5-6.5,5.5-12.8,9.2-15.1
		c10.2-6.5,17.6-1.3,17.9-1c0.2,0.1,0.4,0.2,0.6,0.2c9.2,0,14.1,9.3,14.1,9.4c0.2,0.4,0.7,0.7,1.2,0.5c0.8-0.2,19.2-5.4,27.8,15.4
		c1.3,3.1,1.9,5.9,2.2,8.4C118.9,145.5,105.6,151.6,105,151.9z"/>
	<path class="st4" d="M78.3,72.1L78.3,72.1c0.1,1.4,0.5,3.9,2.3,5.7c1.6,1.6,3.9,2.4,6.8,2.2c0.3,2.4,1.4,8.4,5.6,11.9
		c2.2,1.8,4.8,2.7,7.8,2.7c0.6,0,1.3,0,2-0.1c3.7-0.4,6.2-1.9,7.5-4.4c2.3-4.5-0.3-10.9-1.5-13.5c2.3-0.6,7-2.5,9.5-7.1
		c2.4-4.4,2-10.1-1.1-17c-2.8-6.3-7-10-12.5-11c-8-1.5-16.3,3.5-18.6,5.3c-2.6-1.1-13.1-4.6-18.7,5.7c-2.6,4.7-2.3,9.5,0.7,13.6
		C70.7,69.6,75,72,78.3,72.1z M69.2,53.5L69.2,53.5c3.6-6.6,9.5-6.6,13.2-5.8c2,0.4,3.3,1.1,3.5,1.2c0.3,0.1,0.6,0.1,0.9,0
		c0.1,0,0.2-0.1,0.2-0.2c0.8-0.7,7.5-5.3,14.5-5.4c1,0,2,0.1,3,0.3c4.7,0.9,8.3,4.2,10.9,9.8c2.8,6.2,3.2,11.3,1.1,15.2
		c-2.8,5.2-9.3,6.4-9.4,6.4c-0.3,0-0.6,0.3-0.7,0.6c-0.1,0.3-0.1,0.6,0,0.9c0,0.1,4.5,8.1,2.1,12.8c-1,1.9-3,3-5.9,3.3
		c-0.4,0-0.8,0.1-1.2,0.1c-2.8,0.1-5.2-0.7-7-2.2c-4.6-3.9-5-11.4-5-11.5c0-0.3-0.1-0.5-0.4-0.7c-0.1-0.1-0.2-0.1-0.3-0.2
		c-0.1,0-0.1,0-0.2,0c-0.1,0-0.1,0-0.2,0c0,0-0.1,0-0.1,0c0,0,0,0,0,0c-1.6,0.2-3,0-4.1-0.3c-0.9-0.3-1.6-0.7-2.1-1.3
		c-2-2-1.7-5.3-1.7-5.3c0,0,0-0.1,0-0.1c0-0.1,0-0.2,0-0.3c0,0,0-0.1,0-0.1c0-0.1-0.1-0.2-0.2-0.3c0,0,0,0,0-0.1
		c-0.2-0.2-0.6-0.3-0.9-0.2c0,0,0,0,0,0c-0.3,0.1-0.6,0.1-1,0.1c-2.4-0.1-6.1-2-8.4-5.1C68,62.5,66.4,58.6,69.2,53.5z"/>
	<path class="st3" d="M146.9,113.8l24.8-2.2c1.2-0.1,2.2-1.2,2.1-2.4l-1.4-20.5c0-0.7-0.4-1.3-0.9-1.7l0,0l-3.4-2.5
		c-0.4-0.3-0.9-0.4-1.3-0.4h-20c-1.3,0-2.3,1-2.3,2.3l0.1,25.2C144.4,112.8,145.6,113.9,146.9,113.8z M152.4,103.2l3-13
		c0.1-0.3,0.2-0.5,0.4-0.7c0,0,0-0.1,0.1-0.1c0.1,0,0.1-0.1,0.2-0.1c0.1,0,0.1-0.1,0.2-0.1c0.1-0.1,0.3-0.1,0.4-0.1c0,0,0,0,0,0h0
		l0,0c0.3,0,0.6,0,0.9,0.2c0.3,0.1,0.5,0.4,0.6,0.7l7,14c0.3,0.6,0.1,1.4-0.4,1.8c-0.1,0.1-0.2,0.1-0.3,0.2v0
		c-0.1,0.1-0.2,0.1-0.3,0.1c-0.1,0-0.2,0-0.3,0l0,0h0c-0.4,0-0.8-0.2-1.1-0.5c-0.1-0.1-0.2-0.2-0.2-0.4l-2.4-4.7L156,101l-0.7,2.9
		c-0.2,0.8-1,1.3-1.8,1.1S152.2,104,152.4,103.2z"/>
	<polygon class="st3" points="158.7,97.6 157.4,94.9 156.7,97.9 	"/>
	<path class="st3" d="M180.8,110.8l19.1-0.9c1.9-0.1,3.3-1.7,3.3-3.6l-0.8-20.1c-0.1-1.8-1.5-3.3-3.4-3.3h0c-7-0.1-22.7,0-22.7,3.1
		l0.9,21.5C177.3,109.4,178.9,110.9,180.8,110.8z M183.4,94c0.8-2.2,2-3.6,3.7-4.1c0.9-0.3,1.7-0.2,2.5-0.1c1.7,0.3,3,1.4,3.2,1.5
		c0.6,0.5,0.8,1.5,0.2,2.1c-0.3,0.4-0.8,0.6-1.3,0.6c-0.3,0-0.6-0.1-0.8-0.3c-0.4-0.3-1.5-1-2.5-1c-0.1,0-0.3,0-0.4,0.1
		c-0.7,0.2-1.2,0.9-1.7,2.2c-0.3,1-0.2,1.5-0.2,1.5c0.2,0.3,1.3,0.3,2.2,0.4c0.3,0,0.6,0,0.8,0c0.2,0,0.4,0,0.7,0
		c1.5,0,2.9,0.1,3.9,0.8c1,0.7,1.3,2,1.1,3.5h0c-0.3,1.9-1.7,4.1-4,4.8c-0.5,0.1-1,0.2-1.6,0.2c0,0,0,0,0,0c0,0,0,0,0,0
		c-1.4,0-3.3-0.6-5.3-2.6c-0.6-0.6-0.6-1.5,0-2.1c0.3-0.3,0.7-0.4,1.1-0.4c0.4,0,0.8,0.1,1.1,0.4c0.9,0.9,2.1,1.8,3.4,1.8
		c0.4,0,0.8-0.2,1.2-0.5c1.1-0.8,1.5-2.4,1.3-2.7c-0.2-0.1-1.1-0.2-1.8-0.2c-0.3,0-0.5,0-0.7,0c-0.3,0-0.5,0-0.8,0
		c-1.8,0-3.7-0.1-4.8-1.6C182.9,97.2,182.8,95.8,183.4,94z"/>
	<path class="st3" d="M211.5,109.6l31.5-1.5c0.3,0,0.6-0.1,0.9-0.2c0.8-0.3,1.5-0.9,1.9-1.7c0.8-1.7,1.6-5,1.6-11.2V77.3
		c0,0,0-6.3-11-6.3s-30-1-30,2l0,0l0.5,10.2l1.2,23.4C208.2,108.3,209.7,109.7,211.5,109.6z M222.8,80c0.4,0,0.8,0.2,1.1,0.4
		c0.3,0.3,0.4,0.6,0.4,1.1v5.2l5.4-5.3c0.6-0.6,1.5-0.6,2.1,0c0,0,0,0,0,0c0,0,0,0,0,0c0.6,0.6,0.6,1.6,0,2.1l-6.1,5.9l8.9,5.8h0
		c0.1,0.1,0.2,0.1,0.2,0.2c0.5,0.5,0.6,1.3,0.2,1.9h0c-0.3,0.4-0.8,0.7-1.3,0.7c-0.3,0-0.6-0.1-0.8-0.2l-8.7-5.6v6v0.3
		c0,0.8-0.7,1.5-1.5,1.5c-0.4,0-0.8-0.2-1.1-0.4c-0.3-0.3-0.4-0.6-0.4-1.1v-17C221.3,80.7,222,80,222.8,80z"/>
	<path class="st4" d="M212,34l-0.2,0.1c-1.5,0.8-2.5,2.3-2.5,4V61c0,2.7,2.2,4.9,4.9,4.9h18.5c1.5,0,3-0.6,4-1.7l0.3-0.3
		c2.1-2.2,3.4-5.2,3.5-8.3l0.7-17.2c0-1.4-0.5-2.8-1.5-3.7c-1-1-2.3-1.5-3.7-1.5L212.3,34L212,34z M236.1,35.2
		C236.1,35.1,236.1,35.2,236.1,35.2c0.8,0,1.6,0.3,2.2,0.9c0.6,0.6,0.9,1.4,0.9,2.2l-0.7,17.2c-0.1,2.6-1.2,5.1-3,7l-0.3,0.3
		c-0.7,0.7-1.6,1.1-2.6,1.1h-18.5h0c-1.6,0-2.9-1.3-2.9-2.9V38.2c0-0.9,0.5-1.7,1.3-2.2L236.1,35.2z"/>
	<path class="st4" d="M149.1,19C149.1,19,149.1,19,149.1,19c0.1-2.2,0.5-7.2,3.2-10c1.3-1.4,3-2.1,5.1-2.1
		c9.1,0,20.4,11.4,20.9,13.3c0,0.1,0,0.2,0,0.3c0,0.4-0.2,1-0.4,1.6c-0.2,0.4-0.4,0.8-0.7,1.2c-0.3,0.4-0.6,0.7-1,1
		c-0.6,0.4-1.2,0.5-1.9,0.5c-0.7,0-1.5-0.3-2.4-0.7c-5.8-2.9-13.2-8.9-13.3-9c-0.2-0.2-0.5-0.2-0.7-0.2c-0.1,0-0.3,0-0.4,0.1
		s-0.2,0.1-0.3,0.3c-0.2,0.2-0.2,0.5-0.2,0.7c0,0.3,0.1,0.5,0.4,0.7c0.1,0.1,1.3,1,2.9,2.3c0,0,0,0,0,0c0.8,0.6,1.7,1.3,2.7,2
		c0,0,0,0,0,0c2.4,1.7,5.3,3.6,7.9,4.9c1.4,0.7,2.5,0.9,3.5,0.9c1.2,0,2.2-0.4,2.8-0.8c0.6-0.4,1.1-0.9,1.5-1.4
		c0.9,0.2,1.7,0.2,2.5,0.2c3.3,0,4.6-1.4,5.1-2.7c0.1-0.3,0.2-0.7,0.2-1.1c1,0.1,2,0.2,2.9,0.2s1.7-0.1,2.5-0.2c1.8-0.3,3-1,3.7-2
		c0.3-0.4,0.5-0.8,0.6-1.3c0.3-1.1,0-2.4-0.5-3.7h7.7c5.9,0,9-2.5,9-5c0-2,0-8-12-8c-8.8,0-12.7,2.5-14.1,3.8
		c-0.5-0.3-1.1-0.5-1.6-0.7c-7-2.6-10.7,0.7-11.9,2.1c-4.5-1-8.1-0.1-9.1,0.2c-2.1-0.8-4.3-1.4-6.3-1.4c-2.6,0-4.8,0.9-6.5,2.7
		c-3.5,3.6-3.7,9.9-3.7,11.9c0,0,0,0,0,0C147.7,19.3,148.4,19.1,149.1,19z M210.4,9c0,1.3-2.4,3-7,3h0h-8.8c-1.6-2.3-4-4.5-6.4-6.1
		c1.4-1,5-2.9,12.2-2.9c0,0,0,0,0,0C210.4,3,210.4,7,210.4,9z M184,5.9L184,5.9c5.2,2,11,8.3,10.2,11.3c0,0.1-0.1,0.2-0.1,0.3
		c-0.3,0.7-1.2,1.2-2.5,1.4c-1.3,0.2-3,0.3-5.2,0c0,0-0.1,0-0.1,0c0,0,0,0,0,0c-0.8-3.9-4.7-8.7-8.5-10.9c-1-0.6-1.9-1-2.9-1.3
		c0,0,0,0,0,0C176.3,5.6,179.1,4.1,184,5.9z M168.8,7.7c2.3,0,5.1,0.5,8,2.2c0,0,0,0,0,0c0.6,0.3,1.1,0.7,1.6,1.1s1.1,0.9,1.6,1.4
		c1,1,1.9,2.1,2.6,3.2c0.4,0.6,0.7,1.1,1,1.7c0.8,1.6,1.1,3.1,0.8,4.2c-0.5,1.5-2.8,1.6-4.6,1.3c0.2-0.5,0.3-1,0.4-1.4
		c0.1-0.4,0.1-0.8,0.1-1.1c-0.1-1.9-6.4-8.5-13.5-12.4c0,0,0,0,0,0C167.3,7.7,168,7.7,168.8,7.7z"/>
	<path class="st4" d="M167.3,41.5c0.1,0,0.2,0,0.3,0c0.1,0,3-0.6,6.6-1.3V60c0,0.8,0.7,1.5,1.5,1.5c0.3,0,0.6-0.1,0.8-0.3
		c0.2-0.2,0.4-0.4,0.5-0.7c0.1-0.2,0.1-0.4,0.1-0.6V39.7c3-0.5,6.2-0.9,8.3-1c0.8,0,1.4-0.7,1.5-1.5c0,0,0-0.1,0-0.1
		c0-0.1,0-0.2,0-0.3c-0.2-0.7-0.8-1.2-1.5-1.2c0,0,0,0,0,0h0c-0.2,0-0.4,0-0.6,0c-0.3,0-0.7,0-1.1,0.1c-6.2,0.5-16.2,2.6-16.8,2.8
		c0,0,0,0,0,0c-0.8,0.2-1.3,1-1.2,1.8C166,41,166.7,41.5,167.3,41.5z"/>
	<path class="st3" d="M216.1,48.9l5,7v0c0.3,0.4,0.7,0.6,1.2,0.6c0,0,0.1,0,0.1,0c0.4,0,0.7-0.2,1-0.5c0.1-0.1,0.2-0.2,0.2-0.3
		c2.3-4.2,5.4-8.8,7.2-10.6c0.4-0.4,0.7-0.6,1-0.7c0.2-0.1,0.4-0.2,0.5-0.3c0.4-0.4,0.6-1,0.4-1.6c-0.3-0.8-1.1-1.2-1.9-1
		c-0.3,0.1-0.7,0.3-1.1,0.6c-2.6,1.8-5.7,6.8-7.6,10.1l0,0l-3.6-5.1c-0.5-0.7-1.4-0.8-2.1-0.3c-0.2,0.1-0.3,0.3-0.4,0.4
		C215.8,47.7,215.8,48.4,216.1,48.9z"/>
	<path class="st4" d="M188.4,99.9c0.3,0,0.5,0,0.8,0c0.2,0,0.5,0,0.7,0c0.8,0,1.6,0,1.8,0.2c0.2,0.4-0.2,1.9-1.3,2.7
		c-0.4,0.3-0.8,0.4-1.2,0.5c-1.2,0.1-2.5-0.8-3.4-1.8c-0.3-0.3-0.7-0.4-1-0.4c-0.4,0-0.8,0.1-1.1,0.4c-0.6,0.6-0.6,1.5,0,2.1
		c2,2,3.9,2.6,5.3,2.6c0,0,0,0,0,0c0.6,0,1.1-0.1,1.6-0.2c2.3-0.7,3.7-2.9,4-4.8c0.3-1.5-0.1-2.8-1.1-3.5h0c-1-0.8-2.4-0.8-3.8-0.8
		c-0.2,0-0.4,0-0.7,0c-0.2,0-0.5,0-0.8,0c-0.9,0-2.1-0.1-2.3-0.4c-0.1-0.1-0.2-0.5,0.2-1.5c0.4-1.3,1-2,1.7-2.2
		c0.1,0,0.3-0.1,0.4-0.1c1,0,2.2,0.7,2.5,1c0.2,0.2,0.5,0.3,0.8,0.3c0.5,0,1-0.2,1.3-0.6c0.5-0.6,0.4-1.6-0.2-2.1
		c-0.2-0.2-1.5-1.2-3.2-1.5c-0.8-0.2-1.6-0.2-2.5,0.1c-1.7,0.5-2.9,1.9-3.7,4.1c-0.6,1.8-0.5,3.2,0.2,4.3
		C184.7,99.7,186.6,99.9,188.4,99.9z"/>
	<path class="st4" d="M153.5,105c0.8,0.2,1.6-0.3,1.8-1.1l0.7-2.9l4.2-0.5l2.4,4.7c0.1,0.1,0.1,0.3,0.2,0.4c0.3,0.3,0.7,0.5,1.1,0.5
		h0c0.1,0,0.2,0,0.3,0c0.1,0,0.2-0.1,0.3-0.1c0.1,0,0.2-0.1,0.3-0.2c0.5-0.4,0.7-1.2,0.4-1.8l-7-14c-0.1-0.3-0.4-0.5-0.6-0.7
		c-0.3-0.1-0.6-0.2-0.9-0.2h0c0,0,0,0,0,0c-0.1,0-0.3,0.1-0.4,0.1c-0.1,0-0.1,0.1-0.2,0.1c-0.1,0-0.1,0.1-0.2,0.1c0,0,0,0.1-0.1,0.1
		c-0.2,0.2-0.3,0.4-0.4,0.7l-3,13C152.2,104,152.7,104.8,153.5,105z M158.7,97.6l-2,0.2l0.7-3L158.7,97.6z"/>
	<path class="st4" d="M221.3,98.4c0,0.4,0.2,0.8,0.4,1.1c0.3,0.3,0.6,0.4,1.1,0.4c0.8,0,1.5-0.7,1.5-1.5v-0.3v-6l8.7,5.6
		c0.2,0.2,0.5,0.2,0.8,0.2c0.5,0,1-0.2,1.3-0.7c0.4-0.6,0.3-1.4-0.2-1.9c-0.1-0.1-0.1-0.1-0.2-0.2h0l-8.9-5.8l0,0l6.1-5.9
		c0.6-0.6,0.6-1.5,0-2.1c0,0,0,0,0,0c-0.6-0.6-1.5-0.6-2.1,0l-5.4,5.3l0,0v-5.2c0-0.4-0.2-0.8-0.4-1.1c-0.3-0.3-0.6-0.4-1.1-0.4
		c-0.8,0-1.5,0.7-1.5,1.5V98.4z"/>
	<path class="st1" d="M331.1,190.6c-2.6-3.5-5.7-7.8-1.9-10.9c3.8-3,5.6-7,5.6-12.2c0-1.5-0.5-3-1.1-4.7c-0.8-2.3-1.9-5.2-1.9-9.3
		c0-2.8,0.9-6,1.8-9.5c1.4-5.4,3-11.5,1.3-16.2c-2.1-5.5-3.1-17.8-3.6-28.3l-21.9,3.5c0,0.1,0,0.2,0,0.3c0.5,10.2,2.1,16.3,3.3,20.7
		c1.1,4.2,1.9,7.2,1.1,10.8c-0.6,2.7-1.8,5.4-3.1,7.9c-2.2,4.4-4.2,8.6-2.5,12.7l0.4,1c2.8,6.5,4.6,10.7,1.6,16.9
		c-0.3,0.6-0.6,1.2-0.9,1.8c-2.6,5-4.1,8-1.8,15.6c2.1,7,1.6,14.2,0.1,18.2c1.2-0.3,3-0.8,4.3-1.8c0.9-1.8,3.8-8.1,1.5-12.7
		c-2.9-5.9-2.4-13.3,1.3-18.6c3-4.2,2.5-10.6-1.2-15.2c-4.1-5.1-0.8-12.7,2.2-19.4l0.7-1.6c2.7-6.3-0.7-10.8-0.9-11
		c-0.3-0.4-0.3-1.1,0.2-1.4c0.4-0.3,1.1-0.3,1.4,0.2c0.2,0.2,4.3,5.6,1.1,13l0,0l-0.7,1.6c-2.8,6.5-5.8,13.2-2.4,17.3
		c4.3,5.3,4.8,12.6,1.2,17.6c-2.7,3.9-4.2,10.6-1.1,16.6c1.8,3.5,1.1,7.6,0.1,10.7c3.5-0.1,10.8,2.7,14.3,1.1
		c2.9-3.1,4.2-7.4,4.2-9.9C333.8,194.3,332.4,192.4,331.1,190.6z"/>
	<path class="st1" d="M305.7,191.4c-2.6-8.4-0.7-12,1.9-17.1c0.3-0.6,0.6-1.2,0.9-1.8c2.6-5.3,1.1-8.8-1.6-15.2l-0.4-1
		c-2.1-4.9,0.2-9.7,2.5-14.3c1.2-2.5,2.4-5,2.9-7.5c0.7-3.2,0-5.9-1.1-9.9c-1.2-4.5-2.8-10.8-3.4-21.1c0,0,0-0.1,0-0.1l-28,4.5
		l0.5,2.8c5.8,1.4,11,4.3,15,8.5c4.6,4.8,9.7,13.6,7.5,27.8c-4,25.7-12.9,65.7-13,66.1l-0.2,0.8l0,0c0,0,11-5.9,16.4-5.1
		C306.9,205.8,307.9,198.5,305.7,191.4z"/>
	<path class="st4" d="M307.6,190.8c-2.3-7.6-0.8-10.6,1.8-15.6c0.3-0.6,0.6-1.2,0.9-1.8c3.1-6.1,1.2-10.4-1.6-16.9l-0.4-1
		c-1.7-4.1,0.3-8.2,2.5-12.7c1.2-2.6,2.5-5.2,3.1-7.9c0.8-3.7,0-6.7-1.1-10.8c-1.2-4.5-2.8-10.6-3.3-20.7c0-0.1,0-0.2,0-0.3
		c-0.2-3.5,0.1-6.6,0.5-9.5c0.4,0.1,0.9,0.1,1.3,0.1c2.3,0,4.9-0.9,7.1-2.4c2.6-1.9,4.1-4.5,4.1-7.4c0-4.5-3.3-6.6-5.9-7.3h0
		c0.9-1.3,1.5-1.9,1.6-2c0.4-0.4,0.4-1,0-1.4c-0.4-0.4-1-0.4-1.4,0c-0.4,0.4-10.2,10.5-9.3,30.2c0,0,0,0.1,0,0.1
		c0.5,10.4,2.1,16.6,3.4,21.1c1.1,4,1.8,6.7,1.1,9.9c-0.5,2.5-1.8,5-2.9,7.5c-2.3,4.6-4.6,9.4-2.5,14.3l0.4,1
		c2.7,6.4,4.2,9.9,1.6,15.2c-0.3,0.6-0.6,1.2-0.9,1.8c-2.6,5-4.5,8.7-1.9,17.1c2.2,7.2,1.3,14.5-0.1,17.6c-0.3,0.6-0.5,1-0.8,1.3
		c-0.4,0.4-0.4,1,0,1.4c0.2,0.2,0.5,0.3,0.7,0.3s0.5-0.1,0.7-0.3c0.6-0.5,1.1-1.5,1.5-2.7C309.1,204.9,309.7,197.7,307.6,190.8z
		 M315.3,78.4C315.3,78.4,315.3,78.4,315.3,78.4c1.5,0.3,5,1.5,5,5.6c0,2.9-2,4.8-3.3,5.7h0c-0.5,0.4-1.1,0.7-1.7,1
		c-1.7,0.8-3.6,1.2-5.2,1C311.4,85.7,313.5,81.3,315.3,78.4z"/>
	<path class="st4" d="M288.3,214l0.8,0l0,0l0.2-0.8c0.1-0.4,9-40.3,13-66.1c2.2-14.3-2.8-23-7.5-27.8c-4-4.1-9.2-7-15-8.5
		c-4-1-8.3-1.3-12.6-0.8c-1.6,0.2-4,0.8-6.9,1.8c-0.8,0.3-1.7,0.6-2.6,0.9c0.1-0.4,0.2-0.8,0.3-1.3c0.5-1.8,1.3-3.8,2.7-5.1
		c1.2-1.1,2.7-1.5,4.5-1.3c7.5,0.8,15.2,1.1,20.6-4.5c0.1,0,0.2,0,0.2,0c0.5-0.1,0.8-0.6,0.7-1c0.5-0.6,0.9-1.2,1.4-1.9
		c1.9-3,5.9-4.6,9.7-6.1c5.7-2.2,12.1-4.7,11.5-12.5c-0.3-4-1.6-7-2.8-9.8c-2.5-5.9-5.1-12.1-0.8-29c0.2,0.1,0.4,0.2,0.6,0.3
		c16.2,8.5,24.5,23.3,24.5,44.1c0,3.2,0.1,8.8,0.4,15.1c0.5,10.5,1.6,22.7,3.6,28.3c1.8,4.7,0.1,10.8-1.3,16.2
		c-0.9,3.4-1.8,6.7-1.8,9.5c0,4.2,1,7,1.9,9.3c0.6,1.7,1.1,3.1,1.1,4.7c0,5.2-1.8,9.2-5.6,12.2c-3.9,3.1-0.7,7.4,1.9,10.9
		c1.3,1.8,2.8,3.7,2.8,4.9c0,2.5-1.3,6.8-4.2,9.9c-1.3,1.4-3,2.6-5.1,3.2c-0.5,0.2-0.8,0.7-0.7,1.2c0.1,0.4,0.5,0.7,1,0.7
		c0.1,0,0.2,0,0.3,0c7.6-2.2,10.7-10.8,10.7-15c0-1.8-1.5-3.9-3.1-6.1c-2.8-3.8-4.4-6.4-2.2-8.1c4.3-3.4,6.4-7.9,6.4-13.8
		c0-1.9-0.6-3.6-1.2-5.4c-0.8-2.3-1.8-4.8-1.8-8.6c0-2.5,0.8-5.6,1.7-9c1.5-5.7,3.2-12.1,1.2-17.4l0,0c-1.8-4.7-2.8-15.1-3.4-25
		c-0.4-6.8-0.6-13.4-0.6-17.6c0-21.6-8.6-37-25.5-45.9c-10.6-5.5-24.5-3.6-36.1,5.1c-12.3,9.2-18.8,23.3-16.3,36
		c1.5,8.1,5.2,14,10.7,17.6c0.8,0.5,1.6,1,2.4,1.4v4.7c-0.8-0.1-1.7-0.2-2.5-0.2c-2.4-0.3-4.5,0.3-6.1,1.8c-1.8,1.6-2.8,4.1-3.4,6.3
		c-0.2,0.7-0.3,1.4-0.4,2l-45.8,3.6c-1.9,0.2-3.4,1.8-3.4,3.7v15.2c-0.7,0.3-1.3,0.7-2,1V120c0-1-0.4-2-1.2-2.8
		c-0.8-0.7-1.8-1.1-2.8-1l-53.8,3.6c-1.8,0.1-3.2,1.7-3.1,3.5l0.8,18.1c-3.1,1.5-15,8.1-18.7,20.5c-1.1,3.9-1.3,7.9-0.6,12.1
		c-8.6-0.3-15.7,0.1-21.4,0.8c-10.2,1.2-15.9,3.5-18.5,4.7c-1.1,0.5-1.7,1.7-1.6,2.9l0.5,3.8c-3.4-0.3-12.5-0.1-17.6,8.3
		c-2.5,4.1-2.7,8.2-0.5,11.3c2.6,3.8,8,5.8,15.1,5.8c2,0,4.1-0.2,6.4-0.5l0.7,4.9h-6.9c-1.6,0-3,1.3-3,3v4.1c0,1.6,1.3,3,3,3h105.2
		c-6.5,8.2-12.1,17.7-12.1,26v1h112.9l0.1-0.9c0.1-0.8,1.1-12.2-1.1-23.2c-1.1-5.6-3.1-11.2-6.4-15.2L288.3,214z M282.1,101
		c-3.4,2.2-7.6,2.6-12.1,2.4v-3.9c3.4,1.3,6.7,1.6,9.5,1.7C280.4,101.1,281.3,101.1,282.1,101z M266.6,95.6c-3.2-2-5.6-5-7.4-8.7
		c-0.6-1.3-1.1-2.8-1.6-4.3c-0.1-0.2-0.1-0.4-0.2-0.6c0-0.2-0.1-0.4-0.1-0.5c-0.2-0.7-0.4-1.4-0.5-2.2c-0.3-1.5-0.4-3-0.5-4.5
		c-0.2-10.6,5.8-21.8,16-29.4c3.1-2.3,6.3-4.1,9.6-5.4c4.1,2.3,6.1,4.9,6.1,7.6c0,0,0,0,0,0c0,6.9-12.1,13.4-12.2,13.5
		c-0.4,0.2-0.6,0.6-0.5,1c0,0.1,0,0.3,0.1,0.4c0.2,0.3,0.5,0.5,0.9,0.5c0.2,0,0.3,0,0.5-0.1c0.5-0.3,13.2-7.2,13.2-15.2c0,0,0,0,0,0
		c0-3.2-1.9-6-5.7-8.5c0,0,0,0,0,0c6.8-2.1,13.6-2.1,19.5,0.2c0,0,0,0,0,0c-1.8,6.8-2.5,12-2.5,16.2c-2-1.5-4.7-2.5-5.1-2.7
		c-0.5-0.2-1.1,0.1-1.3,0.6c0,0.1-0.1,0.3-0.1,0.4c0,0.4,0.3,0.7,0.7,0.9c2,0.7,5.4,2.4,5.9,3.9c0.4,4.9,1.8,8.2,3.1,11.3
		c0.3,0.7,0.6,1.3,0.8,2c0.4,1,0.8,2,1.1,3.1c0,0.1,0.1,0.2,0.1,0.3c0,0.1,0,0.2,0.1,0.3c0.3,1.1,0.5,2.2,0.6,3.5c0,0.4,0,0.8,0,1.1
		c-0.1,5.4-4.8,7.3-10.2,9.4c-4.1,1.6-8.4,3.3-10.6,6.9c-0.5,0.8-1.1,1.6-1.7,2.2C282.2,99.1,273.7,100.1,266.6,95.6z M277.2,158.1
		L277.2,158.1c0.1,0,0.2-0.1,0.3-0.1c0.3-0.1,0.7-0.1,1,0.1l5.2,2.4c0.8,0.4,1.1,1.2,0.7,2c-0.3,0.7-1,1-1.7,0.8
		c-0.1,0-0.2-0.1-0.3-0.1l-4.6-2.1l0,0l-44.4,19.7c-0.2,0.1-0.4,0.1-0.6,0.1c0,0,0,0,0,0c-0.6,0-1.1-0.3-1.4-0.9
		c-0.3-0.8,0-1.6,0.8-2L277.2,158.1z M285,233.8c-15.7,3.3-26.3,2-31.5-3.9c-1.5-1.6-2.4-3.5-2.9-5.5c-1.2-4.5-0.5-9.2,0.1-11.9l0,0
		l26.4,1C281.9,218.2,284.1,226.3,285,233.8C285,233.8,285,233.8,285,233.8z M217.5,211.3L217.5,211.3c-2.9,4.8-7.7,15.9-10.7,23
		c-0.2,0.4-0.6,0.7-1.1,0.7h-2.2c-0.4,0-0.6-0.2-0.7-0.3c-0.1-0.1-0.1-0.2-0.2-0.4c0-0.1,0-0.3,0-0.4c1.9-8.5,9.5-20,11.4-22.7
		L217.5,211.3L217.5,211.3z M195.3,198.7l-0.4,8.4c0.1,1.9,1.6,3.5,3.6,3.5l0,0l2.3,0.1c-1.6,1.5-3.4,3.3-5.4,5.3h-56.1l-2.5-20
		C156.6,215.8,187.9,202.3,195.3,198.7z M208.4,120.3c0-0.9,0.7-1.7,1.6-1.7l40.5-3.2c-11.5,4.6-26.7,11.7-42.1,19.2V120.3z
		 M146.7,121.8L146.7,121.8l53.8-3.6c0.5,0,1,0.1,1.3,0.5c0.4,0.3,0.6,0.8,0.6,1.3v0v17.5c-5.9,2.9-11.7,5.8-17.3,8.5c0,0,0,0,0,0
		c0,0,0,0,0,0c-3.9,1.9-7.6,3.8-11.1,5.6c0,0,0,0,0,0c-1.3,0.7-2.6,1.3-3.8,1.9c0,0,0,0,0,0c-1.6,0.8-3.1,1.6-4.6,2.3c0,0,0,0,0,0
		c-8,4.1-14.5,7.4-18.2,9.4l-1-23l0,0c0-0.1,0.1-0.2,0.1-0.3c0-0.1,0-0.3-0.1-0.4c0,0,0,0,0,0l-0.8-18.3l0,0
		C145.4,122.5,146,121.9,146.7,121.8z M144.3,143.6l1,22.7c0,0,0,0,0,0c-0.7,0.4-1.2,0.6-1.4,0.7c-0.1,0.1-0.2,0.2-0.3,0.3
		c-0.2,0.3-0.3,0.7-0.1,1.1c0.3,0.5,0.9,0.7,1.3,0.4c0.1,0,0.7-0.4,1.8-0.9c0.1-0.1,0.2-0.1,0.4-0.2c8.1-4.2,38-19.7,66.2-33.2
		l17.2,46.8l0,0l-32.9,14l0,0l-1.5,0.9c-0.4,0.2-42.4,23.2-62.7-7.7c-6.1-9.3-8-18.1-5.7-26v0c2.5-8.6,9.6-14.3,14.2-17.3
		C142.7,144.5,143.6,144,144.3,143.6z M85.2,194.2l1,7.4c-3.3,0.3-8.1,0.3-9.5-0.9c-0.3-0.2-0.3-0.5-0.3-0.6
		C76.3,197.2,79.2,195.2,85.2,194.2z M67.7,204.7L67.7,204.7L67.7,204.7c-1.7-2.5-1.5-5.8,0.5-9.2c4.8-8,13.6-7.6,16.1-7.3
		c0,0,0,0,0,0l0.6,4c-3.5,0.6-10.5,2.2-10.5,7.8c0,0.5,0.1,0.9,0.3,1.3c0.2,0.3,0.4,0.5,0.6,0.8c0,0,0,0,0,0.1c0,0,0,0,0,0
		c1.5,1.3,4.5,1.6,7.2,1.6c1.6,0,3-0.1,3.9-0.2c0,0,0,0,0,0l0.8,5.6C78,210.5,70.5,208.8,67.7,204.7z M85.5,182.1L85.5,182.1
		c0-0.1,0-0.2,0-0.3c0,0,0,0,0-0.1c0-0.1,0-0.1,0.1-0.2c0-0.1,0.1-0.1,0.1-0.2c0,0,0,0,0,0c0.1-0.1,0.1-0.1,0.2-0.1
		c3-1.5,14.8-6.1,39.4-5.3c0,0,0,0,0,0c1.1,4.4,3.1,8.9,6.2,13.5c0.9,1.4,1.9,2.7,2.9,3.9l2.8,22.5h-47h0L85.5,182.1z M80.3,219
		L80.3,219c0-0.5,0.4-1,1-1h112.1c0,0,0,0,0,0c-1.7,1.9-3.5,3.9-5.3,6H81.3v0c-0.5,0-1-0.4-1-1V219z M176.4,251L176.4,251
		c0.8-14.5,19.4-33,27.2-40.2l0,0l8.1,0.3c-2.7,4-9.2,14.3-11,22.4c-0.2,0.9,0,1.8,0.6,2.4c0.5,0.7,1.4,1.1,2.2,1.1h0h2.1
		c1.3,0,2.4-0.8,2.9-2c5-12.1,9.3-21.2,11.1-23.6l0,0l28.8,1.1c-1,4.4-1.9,12.8,3.4,18.8c3.7,4.2,9.8,6.3,18.1,6.3c0,0,0,0,0,0
		c1.1,0,2.3,0,3.5-0.1l0,0l-1.3,13.5H176.4z M274.3,251L274.3,251l1.3-13.7c3-0.3,6.1-0.8,9.5-1.5c0,0,0,0,0,0
		c0.7,6.8,0.4,12.9,0.2,15.2H274.3z"/>
	<path class="st4" d="M315.3,193.6c-3-6-1.6-12.7,1.1-16.6c3.5-5,3-12.3-1.2-17.6c-3.3-4.2-0.4-10.9,2.4-17.3l0.7-1.6l0,0
		c3.2-7.4-1-12.8-1.1-13c-0.3-0.4-1-0.5-1.4-0.2c-0.4,0.3-0.5,1-0.2,1.4c0.1,0.2,3.6,4.7,0.9,11l-0.7,1.6
		c-2.9,6.7-6.2,14.3-2.2,19.4c3.7,4.6,4.2,11,1.2,15.2c-3.7,5.3-4.2,12.8-1.3,18.6c2.3,4.6-0.6,10.9-1.5,12.7
		c-0.2,0.3-0.3,0.5-0.3,0.5c-0.3,0.5-0.1,1.1,0.4,1.4c0.2,0.1,0.3,0.1,0.5,0.1c0.3,0,0.7-0.2,0.9-0.5c0.1-0.2,1.1-1.9,1.9-4.4
		C316.4,201.2,317,197.1,315.3,193.6z"/>
</g>
</svg>
